<svg id="svg" xmlns="http://www.w3.org/2000/svg" xmlns:xlink="http://www.w3.org/1999/xlink" width="400" height="400" viewBox="0, 0, 400,400"><g id="svgg"><path id="path0" d="M187.658 25.799 C 171.592 30.008,156.168 45.528,153.514 60.156 C 153.054 62.692,152.610 63.054,147.407 65.139 C 124.682 74.245,109.365 89.657,104.996 107.813 C 102.339 118.855,104.928 144.660,109.261 150.319 C 111.502 153.246,110.959 153.728,105.878 153.320 C 94.299 152.391,87.765 156.235,84.245 166.048 C 82.461 171.023,82.372 171.121,80.078 170.627 C 65.479 167.483,51.480 154.968,44.008 138.378 C 36.980 122.776,34.439 109.778,32.167 77.805 C 31.372 66.623,29.313 63.488,23.296 64.295 C 16.412 65.218,15.513 67.900,16.409 84.835 C 19.413 141.546,40.264 178.005,74.219 185.915 C 76.582 186.465,78.955 187.036,79.492 187.183 C 80.627 187.494,80.698 191.096,79.954 210.715 L 79.444 224.165 46.207 224.167 L 12.971 224.168 10.605 226.535 C 7.183 229.956,7.251 234.434,10.772 237.580 L 13.306 239.844 47.207 239.844 L 81.109 239.844 82.020 245.508 C 83.493 254.671,86.758 267.901,89.166 274.467 C 91.688 281.344,91.889 282.813,90.305 282.813 C 76.901 282.813,45.233 302.063,32.649 317.861 C 16.277 338.414,10.433 373.824,23.133 375.527 C 28.954 376.308,31.271 373.245,32.135 363.632 C 34.983 331.944,55.187 309.432,89.614 299.585 C 98.464 297.054,98.832 297.127,101.423 301.911 C 102.574 304.037,103.786 306.146,104.117 306.599 C 104.448 307.051,107.048 310.762,109.895 314.844 C 132.695 347.532,178.574 371.876,207.813 366.800 C 246.325 360.114,278.741 336.970,298.364 302.148 C 301.309 296.923,301.238 296.937,310.655 299.653 C 344.896 309.529,365.026 332.040,367.865 363.632 C 368.803 374.072,372.352 377.641,379.205 375.035 C 389.453 371.138,382.174 336.466,367.147 317.604 C 354.763 302.060,322.980 282.813,309.695 282.813 C 308.111 282.812,308.312 281.344,310.834 274.467 C 313.237 267.915,316.507 254.672,317.971 245.564 C 318.775 240.560,319.054 239.966,320.569 240.043 C 321.502 240.091,336.762 240.066,354.480 239.987 L 386.694 239.844 389.234 237.574 C 393.295 233.946,391.975 225.947,387.109 224.703 C 386.250 224.484,370.869 224.227,352.930 224.134 C 334.990 224.040,320.304 223.933,320.293 223.896 C 320.282 223.859,320.095 216.621,319.877 207.813 C 319.659 199.004,319.326 190.834,319.137 189.658 C 318.845 187.840,319.112 187.452,320.920 187.075 C 360.122 178.888,382.616 140.531,383.772 79.902 C 384.017 67.075,383.160 65.161,376.793 64.307 C 370.676 63.486,368.632 66.566,367.833 77.805 C 365.572 109.623,363.006 122.820,356.078 138.281 C 349.409 153.162,337.470 164.805,324.264 169.307 C 316.784 171.857,315.840 171.714,314.121 167.773 C 310.857 160.287,303.875 156.294,294.007 156.267 L 287.624 156.250 289.388 152.930 C 307.714 118.437,291.714 80.277,252.603 65.199 C 247.344 63.171,246.973 62.869,246.497 60.231 C 242.164 36.212,213.017 19.155,187.658 25.799 M208.980 41.559 C 215.459 43.202,222.967 48.830,226.845 54.951 C 228.752 57.959,228.392 58.089,221.356 56.939 C 213.376 55.634,186.624 55.634,178.644 56.939 C 171.471 58.112,171.132 57.954,173.481 54.537 C 181.613 42.711,194.683 37.933,208.980 41.559 M223.448 74.487 C 261.858 81.635,281.514 99.776,279.303 126.040 C 276.694 157.034,257.221 167.188,200.391 167.188 C 142.472 167.187,123.168 157.112,120.662 125.575 C 118.527 98.713,140.245 79.972,180.616 73.839 C 190.076 72.402,214.203 72.767,223.448 74.487 M122.211 173.137 C 178.997 187.608,208.884 188.289,268.359 176.472 C 301.650 169.857,300.969 169.557,303.113 191.797 C 308.239 244.980,294.829 289.480,264.501 319.935 C 248.860 335.641,227.672 347.490,211.192 349.749 L 207.841 350.209 207.631 289.188 L 207.422 228.168 205.642 226.389 C 204.270 225.017,202.978 224.609,200.000 224.609 C 197.022 224.609,195.730 225.017,194.358 226.389 L 192.578 228.168 192.369 289.188 L 192.159 350.209 188.853 349.755 C 172.282 347.481,151.274 335.748,135.517 319.967 C 104.468 288.868,91.445 243.531,96.904 185.547 C 98.717 166.290,97.563 166.856,122.211 173.137 " stroke="none" fill="#000000" fill-rule="evenodd"></path></g></svg>